# xmcd
#
# Track frame offsets:
#	150
#	94252
#	181684
#	243761
#	264011
#
# Disc length: 3882 seconds
#
# Revision: 1
# Processed by: cddbd v1.5.1PL2 Copyright (c) Steve Scherf et al.
# Submitted via: audiograbber 1.83.01
#
DISCID=2e0f2805
DTITLE=Various Artist - Early Country Radio - CD 3
DYEAR=1900
DGENRE=Country
TTITLE0=Charlie Monroe and the Kentucky Pardners - I Got a Gal Waitin' For Me and
TTITLE0=more...
TTITLE1=Charlie Monroe and the Kentucky Pardners - Watermelon On the Vine and mor
TTITLE1=e...
TTITLE2=Roy Hall and His Blue Ridge Entertainers - Fisher's Hornpipe and more...
TTITLE3=J.E. Mainer's Mountaineers - Arkansas Traveller and more...
TTITLE4=J.E. Mainer's Mountaineers - My Old Pal of Yesterday and more...
EXTD=
EXTT0=
EXTT1=
EXTT2=
EXTT3=
EXTT4=
PLAYORDER=
